<mxfile host="app.diagrams.net" modified="2023-11-05T23:45:14.242Z" agent="Mozilla/5.0 (Windows NT 10.0; Win64; x64) AppleWebKit/537.36 (KHTML, like Gecko) Chrome/118.0.0.0 Safari/537.36" etag="MK-w1Jv7V_oUFzCxN5Ha" version="21.7.4" type="github">
  <diagram name="Page-1" id="5f0bae14-7c28-e335-631c-24af17079c00">
    <mxGraphModel dx="933" dy="398" grid="0" gridSize="10" guides="1" tooltips="1" connect="1" arrows="1" fold="1" page="0" pageScale="1" pageWidth="1100" pageHeight="850" background="none" math="0" shadow="0">
      <root>
        <mxCell id="0" />
        <mxCell id="1" parent="0" />
        <mxCell id="jcUbWSgRWRLbi6tU-3z8-5" value="«Component»&lt;br&gt;&lt;b&gt;Aplicativo&lt;/b&gt;" style="html=1;dropTarget=0;whiteSpace=wrap;" vertex="1" parent="1">
          <mxGeometry x="73" y="198" width="180" height="90" as="geometry" />
        </mxCell>
        <mxCell id="jcUbWSgRWRLbi6tU-3z8-6" value="" style="shape=module;jettyWidth=8;jettyHeight=4;" vertex="1" parent="jcUbWSgRWRLbi6tU-3z8-5">
          <mxGeometry x="1" width="20" height="20" relative="1" as="geometry">
            <mxPoint x="-27" y="7" as="offset" />
          </mxGeometry>
        </mxCell>
        <mxCell id="jcUbWSgRWRLbi6tU-3z8-7" value="«Component»&lt;br&gt;&lt;b&gt;Salão&lt;/b&gt;" style="html=1;dropTarget=0;whiteSpace=wrap;" vertex="1" parent="1">
          <mxGeometry x="384" y="198" width="180" height="90" as="geometry" />
        </mxCell>
        <mxCell id="jcUbWSgRWRLbi6tU-3z8-8" value="" style="shape=module;jettyWidth=8;jettyHeight=4;" vertex="1" parent="jcUbWSgRWRLbi6tU-3z8-7">
          <mxGeometry x="1" width="20" height="20" relative="1" as="geometry">
            <mxPoint x="-27" y="7" as="offset" />
          </mxGeometry>
        </mxCell>
        <mxCell id="jcUbWSgRWRLbi6tU-3z8-9" value="«Component»&lt;br&gt;&lt;b&gt;Cliente&lt;/b&gt;" style="html=1;dropTarget=0;whiteSpace=wrap;" vertex="1" parent="1">
          <mxGeometry x="204" y="405" width="180" height="90" as="geometry" />
        </mxCell>
        <mxCell id="jcUbWSgRWRLbi6tU-3z8-10" value="" style="shape=module;jettyWidth=8;jettyHeight=4;" vertex="1" parent="jcUbWSgRWRLbi6tU-3z8-9">
          <mxGeometry x="1" width="20" height="20" relative="1" as="geometry">
            <mxPoint x="-27" y="7" as="offset" />
          </mxGeometry>
        </mxCell>
        <mxCell id="jcUbWSgRWRLbi6tU-3z8-11" value="" style="rounded=0;orthogonalLoop=1;jettySize=auto;html=1;endArrow=halfCircle;endFill=0;endSize=6;strokeWidth=1;sketch=0;exitX=0;exitY=0.5;exitDx=0;exitDy=0;" edge="1" target="jcUbWSgRWRLbi6tU-3z8-13" parent="1" source="jcUbWSgRWRLbi6tU-3z8-7">
          <mxGeometry relative="1" as="geometry">
            <mxPoint x="342" y="247" as="sourcePoint" />
          </mxGeometry>
        </mxCell>
        <mxCell id="jcUbWSgRWRLbi6tU-3z8-12" value="" style="rounded=0;orthogonalLoop=1;jettySize=auto;html=1;endArrow=oval;endFill=0;sketch=0;sourcePerimeterSpacing=0;targetPerimeterSpacing=0;endSize=10;exitX=1;exitY=0.5;exitDx=0;exitDy=0;" edge="1" target="jcUbWSgRWRLbi6tU-3z8-13" parent="1" source="jcUbWSgRWRLbi6tU-3z8-5">
          <mxGeometry relative="1" as="geometry">
            <mxPoint x="302" y="247" as="sourcePoint" />
          </mxGeometry>
        </mxCell>
        <mxCell id="jcUbWSgRWRLbi6tU-3z8-13" value="" style="ellipse;whiteSpace=wrap;html=1;align=center;aspect=fixed;fillColor=none;strokeColor=none;resizable=0;perimeter=centerPerimeter;rotatable=0;allowArrows=0;points=[];outlineConnect=1;" vertex="1" parent="1">
          <mxGeometry x="317" y="238" width="10" height="10" as="geometry" />
        </mxCell>
        <mxCell id="jcUbWSgRWRLbi6tU-3z8-14" value="" style="rounded=0;orthogonalLoop=1;jettySize=auto;html=1;endArrow=halfCircle;endFill=0;endSize=6;strokeWidth=1;sketch=0;exitX=0.25;exitY=0;exitDx=0;exitDy=0;" edge="1" target="jcUbWSgRWRLbi6tU-3z8-16" parent="1" source="jcUbWSgRWRLbi6tU-3z8-9">
          <mxGeometry relative="1" as="geometry">
            <mxPoint x="270" y="334" as="sourcePoint" />
          </mxGeometry>
        </mxCell>
        <mxCell id="jcUbWSgRWRLbi6tU-3z8-15" value="" style="rounded=0;orthogonalLoop=1;jettySize=auto;html=1;endArrow=oval;endFill=0;sketch=0;sourcePerimeterSpacing=0;targetPerimeterSpacing=0;endSize=10;exitX=0.807;exitY=0.984;exitDx=0;exitDy=0;exitPerimeter=0;" edge="1" target="jcUbWSgRWRLbi6tU-3z8-16" parent="1" source="jcUbWSgRWRLbi6tU-3z8-5">
          <mxGeometry relative="1" as="geometry">
            <mxPoint x="230" y="334" as="sourcePoint" />
          </mxGeometry>
        </mxCell>
        <mxCell id="jcUbWSgRWRLbi6tU-3z8-16" value="" style="ellipse;whiteSpace=wrap;html=1;align=center;aspect=fixed;fillColor=none;strokeColor=none;resizable=0;perimeter=centerPerimeter;rotatable=0;allowArrows=0;points=[];outlineConnect=1;" vertex="1" parent="1">
          <mxGeometry x="226" y="334" width="10" height="10" as="geometry" />
        </mxCell>
      </root>
    </mxGraphModel>
  </diagram>
</mxfile>
